<svg version="1.0" xmlns="http://www.w3.org/2000/svg" viewBox="0 0 1862.000000 296.000000" preserveAspectRatio="xMidYMid meet" aria-label="API Technology Logo" width="200" height="70">
<g transform="translate(0.000000,296.000000) scale(0.100000,-0.100000)" fill="#aeb2ba" stroke="none"><path d="M4240 2924 c-187 -24 -412 -93 -595 -185 -66 -32 -111 -57 -100 -53
164 49 213 57 355 58 184 1 233 -16 327 -109 53 -53 64 -71 83 -134 31 -99 25
-255 -14 -385 -193 -644 -1023 -1401 -1685 -1536 -420 -85 -663 117 -597 496
8 50 29 129 45 175 16 46 28 85 26 87 -5 5 -103 -171 -145 -262 -95 -206 -140
-381 -140 -550 0 -154 32 -254 107 -337 110 -122 295 -176 513 -150 287 34
634 175 968 394 73 48 135 87 136 87 2 0 61 -65 130 -145 l127 -145 661 0
c629 0 660 1 646 18 -9 9 -192 234 -407 500 l-392 483 92 121 c237 311 397
625 454 894 24 108 24 272 1 349 -49 164 -154 267 -317 311 -57 15 -219 25
-279 18z"></path><path d="M1486 2878 c12 -20 1563 -1806 1574 -1813 11 -7 66 27 190 118 193
142 398 337 538 511 l62 78 -42 53 c-24 29 -227 281 -453 559 l-410 506 -733
0 c-584 0 -732 -3 -726 -12z"></path><path d="M895 2058 c-264 -331 -569 -713 -677 -850 l-198 -248 639 0 639 0
      364 407 c200 224 371 417 380 428 16 21 7 33 -317 440 -184 231 -338 421 -342
      422 -4 2 -224 -268 -488 -599z"></path><path d="M11802 2344 l-22 -15 0 -644 c0 -627 1 -645 19 -655 28 -14 194 -13
209 2 9 9 12 90 12 304 l0 291 51 51 c88 88 176 104 238 41 17 -16 35 -47 41
-67 6 -21 10 -158 10 -324 0 -274 1 -288 19 -298 28 -14 194 -13 209 2 15 15
17 582 2 673 -20 123 -95 219 -193 246 -23 6 -74 12 -114 11 -80 0 -148 -25
-218 -82 l-40 -32 -3 246 -2 247 -26 9 c-41 16 -166 12 -192 -6z"></path><path d="M14993 2350 l-23 -9 0 -649 c0 -491 3 -651 12 -660 15 -15 181 -16
209 -2 18 10 19 28 19 654 0 586 -1 645 -17 657 -19 17 -167 23 -200 9z"></path><path d="M8250 2318 c-38 -20 -51 -55 -47 -126 4 -82 23 -102 104 -109 70 -6
126 9 148 40 9 14 15 44 15 84 0 51 -4 67 -24 90 -21 25 -31 28 -97 31 -47 2
-83 -2 -99 -10z"></path><path d="M6276 2254 c-9 -8 -16 -17 -16 -18 0 -2 -90 -261 -200 -577 -127
-363 -200 -585 -198 -604 l3 -30 90 -3 c137 -4 126 -13 180 148 l47 140 237 0
237 0 43 -132 c24 -73 48 -139 54 -146 7 -9 41 -12 126 -10 l116 3 -1 40 c-2
57 -390 1165 -416 1188 -28 24 -278 26 -302 1z m229 -485 c47 -139 85 -257 85
-261 0 -5 -79 -8 -175 -8 -96 0 -175 3 -175 7 0 16 172 524 176 520 3 -2 43
-118 89 -258z"></path><path d="M9060 2260 c-18 -11 -26 -133 -11 -172 l11 -28 165 0 165 0 0 -510
c0 -590 -14 -530 125 -530 139 0 125 -60 125 530 l0 510 158 0 c86 0 164 4
172 10 22 14 27 143 6 175 l-16 25 -443 0 c-253 0 -448 -4 -457 -10z"></path><path d="M7603 1960 c-65 -14 -122 -42 -185 -93 -31 -26 -59 -47 -62 -47 -3 0
        -6 27 -6 60 l0 59 -35 7 c-53 10 -145 0 -156 -17 -5 -8 -9 -282 -9 -620 0
-552 1 -608 17 -620 17 -15 173 -20 206 -7 15 7 17 27 17 218 0 115 3 210 6
210 4 0 22 -13 40 -30 70 -61 110 -75 214 -75 84 0 102 3 152 28 141 69 211
222 211 462 1 184 -36 299 -123 386 -67 67 -186 99 -287 79z m67 -216 c68 -41
109 -170 96 -308 -16 -177 -125 -277 -239 -220 -18 9 -56 39 -84 67 l-53 51 0
146 0 146 52 53 c29 30 66 60 83 67 42 18 112 17 145 -2z"></path><path d="M10266 1959 c-177 -27 -297 -144 -342 -336 -22 -94 -14 -284 15 -368
60 -172 201 -255 431 -255 142 0 309 41 330 81 15 27 12 135 -3 148 -11 8 -32
4 -88 -16 -65 -23 -90 -27 -200 -27 -120 -1 -127 0 -166 26 -46 31 -80 90 -89
161 l-7 47 277 0 277 0 26 26 c25 25 26 28 20 127 -13 247 -129 372 -362 390
-33 3 -87 1 -119 -4z m136 -169 c64 -18 118 -101 118 -182 l0 -28 -185 0
c-207 0 -194 -5 -170 77 19 65 48 101 99 124 46 21 85 23 138 9z"></path><path d="M11260 1959 c-209 -31 -324 -164 -353 -406 -25 -217 38 -404 167
-490 69 -47 116 -58 241 -57 125 0 207 25 257 75 26 25 28 34 28 102 0 115
-12 129 -73 83 -63 -47 -113 -66 -177 -66 -137 0 -200 89 -200 285 0 201 70
292 216 283 50 -3 74 -11 122 -41 33 -20 67 -37 76 -37 35 0 49 111 22 174
-10 25 -28 40 -68 59 -47 22 -161 49 -193 46 -5 -1 -35 -5 -65 -10z"></path><path d="M13280 1956 c-68 -15 -104 -34 -175 -91 l-55 -45 0 49 c0 73 -15 84
-112 79 -56 -2 -82 -8 -88 -18 -6 -9 -10 -196 -10 -452 0 -422 1 -438 19 -448
21 -11 179 -14 205 -4 14 5 16 42 16 304 l0 297 58 55 c62 60 115 83 165 74
47 -9 77 -33 98 -80 17 -37 19 -70 19 -338 0 -284 1 -298 19 -308 21 -11 179
-14 205 -4 14 5 16 44 16 328 0 344 -6 395 -51 476 -57 104 -195 156 -329 126z"></path><path d="M14240 1960 c-169 -22 -294 -116 -349 -266 -32 -85 -45 -210 -31
-310 33 -251 157 -369 402 -382 329 -17 508 157 508 493 0 283 -118 433 -364
465 -79 10 -87 10 -166 0z m185 -210 c87 -54 128 -226 91 -383 -28 -117 -96
-176 -204 -177 -67 0 -109 18 -149 63 -47 54 -58 97 -58 232 0 111 2 124 28
177 43 87 102 120 199 114 36 -3 71 -12 93 -26z"></path><path d="M15785 1959 c-168 -22 -287 -114 -345 -265 -31 -83 -44 -206 -32
-305 31 -252 158 -374 404 -387 329 -17 508 157 508 493 0 283 -118 433 -364
465 -80 11 -88 11 -171 -1z m190 -209 c79 -49 119 -190 97 -343 -21 -146 -90
-217 -209 -217 -68 0 -110 18 -150 63 -47 54 -58 97 -58 232 0 111 2 124 28
177 43 87 102 120 199 114 36 -3 71 -12 93 -26z"></path><path d="M16693 1942 c-136 -48 -213 -155 -213 -297 0 -64 14 -113 45 -159
l25 -37 -39 -56 c-65 -90 -67 -174 -5 -243 l35 -38 -46 -47 c-52 -54 -81 -133
-70 -193 24 -130 134 -190 365 -199 251 -10 417 62 470 204 57 152 -25 301
-183 332 -28 6 -123 14 -209 19 -131 7 -160 11 -177 27 -25 21 -27 62 -6 92
14 21 17 21 50 7 45 -19 177 -18 242 1 127 38 203 131 211 259 3 51 0 82 -12
110 -9 21 -16 40 -16 42 0 2 25 4 55 4 64 0 75 12 75 87 0 79 -3 81 -180 87
-85 3 -202 8 -260 11 -86 4 -114 2 -157 -13z m212 -156 c48 -21 75 -68 75
-135 0 -65 -26 -112 -74 -135 -70 -33 -161 -11 -198 48 -25 41 -21 139 7 178
40 55 120 73 190 44z m44 -737 c113 -24 124 -139 18 -196 -45 -25 -209 -25
-254 0 -73 39 -80 104 -19 170 l34 37 85 0 c47 0 109 -5 136 -11z"></path><path d="M8243 1940 l-23 -9 0 -450 c0 -400 2 -450 16 -455 20 -8 178 -8 198
      0 14 5 16 55 16 455 l0 449 -26 10 c-31 12 -151 12 -181 0z"></path><path d="M17378 1939 c-10 -5 -18 -21 -18 -34 0 -31 307 -854 327 -876 12 -14
6 -36 -48 -173 -50 -124 -60 -159 -50 -169 20 -20 201 -16 233 5 21 14 46 79
167 435 78 230 170 500 204 601 l62 184 -24 19 c-19 15 -39 19 -106 19 -57 0
-88 -4 -97 -13 -7 -8 -56 -150 -108 -315 -51 -166 -96 -302 -100 -302 -3 0
-53 134 -110 297 -58 164 -113 305 -122 315 -15 15 -34 18 -105 18 -49 0 -96
-5 -105 -11z"></path></g></svg>
